<svg xmlns="http://www.w3.org/2000/svg" aria-hidden="true" style="display:none">
  <symbol id="icon-brand" viewBox="0 0 24 24" fill="none" stroke="currentColor" stroke-linecap="square" stroke-linejoin="miter">
    <path d="M12 2 20 6.5v11L12 22l-8-4.5v-11L12 2Z" stroke-width="1.7"/>
    <path d="M7 12c1.5-2.4 3.2-3.6 5-3.6s3.5 1.2 5 3.6c-1.5 2.4-3.2 3.6-5 3.6S8.5 14.4 7 12Z" stroke-width="1.5"/>
    <path d="M12 10.5v3M10.5 12h3" stroke-width="1.4"/>
    <path d="M5.6 6.9 4.5 5.8M18.4 6.9l1.1-1.1M5.6 17.1l-1.1 1.1M18.4 17.1l1.1 1.1" stroke-width="1"/>
  </symbol>
  <symbol id="icon-archive" viewBox="0 0 24 24" fill="none" stroke="currentColor" stroke-linecap="square" stroke-linejoin="miter">
    <path d="M4 6.2 6.6 4h10.8L20 6.2v12.3L17.4 21H6.6L4 18.5V6.2Z" stroke-width="1.7"/>
    <path d="M6.5 7.1h11M7.3 17.1h9.4M8 10.1h8M8 13h8" stroke-width="1.1"/>
    <path d="M12 9.2c1.2 1 1.8 1.8 1.8 2.8S13.2 13.8 12 14.8c-1.2-1-1.8-1.8-1.8-2.8S10.8 10.2 12 9.2Z" stroke-width="1.1"/>
  </symbol>
  <symbol id="icon-board" viewBox="0 0 24 24" fill="none" stroke="currentColor" stroke-linecap="square" stroke-linejoin="miter">
    <path d="M4 19h16M6 17v-3.5l2-2V17M10 17V8l2-2 2 2v9M16 17v-5.5l2-2V17" stroke-width="1.7"/>
    <path d="m8 7 1.3-2 1.4 1.4L12 3.5l1.3 2.9L15 5l1 2.2" stroke-width="1.3"/>
    <path d="M4 21h16" stroke-width="1"/>
  </symbol>
  <symbol id="icon-believer" viewBox="0 0 24 24" fill="none" stroke="currentColor" stroke-linecap="square" stroke-linejoin="miter">
    <path d="M6 4h10l2 2v14H6V4Z" stroke-width="1.7"/>
    <path d="M16 4v3h3M9 10.2a2.3 2.3 0 1 0 0-4.6 2.3 2.3 0 0 0 0 4.6ZM7.2 16c.5-2.2 3.1-3.3 5.2-2.1 1.1.6 1.7 1.3 2 2.1" stroke-width="1.3"/>
    <path d="M14.5 10.5h1.7M14.5 13h1.7" stroke-width="1"/>
  </symbol>
  <symbol id="icon-trial" viewBox="0 0 24 24" fill="none" stroke="currentColor" stroke-linecap="square" stroke-linejoin="miter">
    <path d="m12 2 7 4v8l-7 8-7-8V6l7-4Z" stroke-width="1.7"/>
    <path d="M8 9.2h8M8 14.8h8M10 6.8h4M10 17.2h4" stroke-width="1.2"/>
    <path d="M12 8.7v6.6M10.6 12h2.8" stroke-width="1.4"/>
  </symbol>
  <symbol id="icon-observatory" viewBox="0 0 24 24" fill="none" stroke="currentColor" stroke-linecap="square" stroke-linejoin="miter">
    <path d="M4 19h16M7 19l2.2-4h5.6l2.2 4M8 8.5 12 5l4 3.5v5.7H8V8.5Z" stroke-width="1.7"/>
    <circle cx="12" cy="11.3" r="2.4" stroke-width="1.2"/>
    <path d="M3.7 7.5c1.8-2.1 3.4-3 4.9-3M20.3 7.5c-1.8-2.1-3.4-3-4.9-3M12 2v1.7" stroke-width="1"/>
  </symbol>
  <symbol id="icon-corridor" viewBox="0 0 24 24" fill="none" stroke="currentColor" stroke-linecap="square" stroke-linejoin="miter">
    <circle cx="12" cy="12" r="2.1" stroke-width="1.5"/>
    <path d="M12 2v5M20.7 7l-4.3 2.5M20.7 17l-4.3-2.5M12 22v-5M3.3 17l4.3-2.5M3.3 7l4.3 2.5" stroke-width="1.6"/>
    <path d="M10 3.5 12 2l2 1.5M19 5.8l1.7 1.2-.3 2.5M19 18.2l1.7-1.2-.3-2.5M10 20.5l2 1.5 2-1.5M5 18.2 3.3 17l.3-2.5M5 5.8 3.3 7l.3 2.5" stroke-width="1"/>
  </symbol>
  <symbol id="icon-fate-void" viewBox="0 0 24 24" fill="none" stroke="currentColor" stroke-linecap="square" stroke-linejoin="miter">
    <path d="M18.5 5.8A8.3 8.3 0 1 0 18.2 18" stroke-width="1.8"/>
    <path d="M14.8 16.8c1.1-1.2 1.7-2.8 1.7-4.6 0-1.2-.3-2.4-.9-3.4" stroke-width="1.2"/>
    <path d="M17.8 4.6 20 5.2l-1 2.1" stroke-width="1.1"/>
  </symbol>
  <symbol id="icon-fate-chaos" viewBox="0 0 24 24" fill="none" stroke="currentColor" stroke-linecap="square" stroke-linejoin="miter">
    <path d="M4 13.6c3.1-6.9 8.7-8.7 15.6-5.2-1.1 6.5-6 10.3-14.8 7.2" stroke-width="1.6"/>
    <path d="M6.2 6.4c4.4 1.3 8.3 5.4 11.5 11.2M5.6 17.5c2.1-4.9 6-8.3 12.7-10.6" stroke-width="1.3"/>
    <circle cx="12" cy="12" r="1.4" stroke-width="1.1"/>
  </symbol>
  <symbol id="icon-fate-existence" viewBox="0 0 24 24" fill="none" stroke="currentColor" stroke-linecap="square" stroke-linejoin="miter">
    <circle cx="12" cy="12" r="2" fill="currentColor" stroke="none"/>
    <circle cx="12" cy="12" r="5.1" stroke-width="1.3"/>
    <circle cx="12" cy="12" r="8.8" stroke-width="1.4"/>
    <path d="M12 1.8v2M12 20.2v2M1.8 12h2M20.2 12h2" stroke-width="1"/>
  </symbol>
  <symbol id="icon-fate-fall" viewBox="0 0 24 24" fill="none" stroke="currentColor" stroke-linecap="square" stroke-linejoin="miter">
    <path d="m12 20-7-11h14l-7 11Z" stroke-width="1.8"/>
    <path d="M8.2 5.5 10 3.7M12 5.2V2.5M15.8 5.5 14 3.7M8 14.2l1.5 1.7M16 14.2l-1.5 1.7" stroke-width="1.2"/>
    <path d="M6.3 19.8 8 18.1M17.7 19.8 16 18.1" stroke-width="1"/>
  </symbol>
  <symbol id="icon-fate-life" viewBox="0 0 24 24" fill="none" stroke="currentColor" stroke-linecap="square" stroke-linejoin="miter">
    <path d="M12 20.5c-2.8-2.7-4.3-5.3-4.3-7.7 0-2.1 1.4-3.7 3.1-3.7 1 0 1.8.5 2.2 1.3.4-.8 1.2-1.3 2.2-1.3 1.7 0 3.1 1.6 3.1 3.7 0 2.4-1.5 5-4.3 7.7" stroke-width="1.5"/>
    <path d="M12 20.5V5.5C10.3 4.1 8.7 3.6 6.8 4.1c.1 2.5 1.4 4.4 4.1 5.5M12 10.6c2.7-1.1 4-3 4.1-5.5-1.9-.5-3.5 0-4.1 1.4" stroke-width="1.3"/>
  </symbol>
  <symbol id="icon-fate-civilization" viewBox="0 0 24 24" fill="none" stroke="currentColor" stroke-linecap="square" stroke-linejoin="miter">
    <path d="M5 19h14M7 16h10M9 13h6M11 10h2" stroke-width="1.8"/>
    <path d="M6.2 20.5V18M17.8 20.5V18M8.2 17.5V15M15.8 17.5V15M10.2 14.5V12M13.8 14.5V12" stroke-width="1.1"/>
    <path d="M4 6h3M17 6h3M3 9h3M18 9h3" stroke-width="1"/>
  </symbol>
  <symbol id="icon-score-deity" viewBox="0 0 24 24" fill="none" stroke="currentColor" stroke-linecap="square" stroke-linejoin="miter">
    <path d="M5 19h14M7 17h10M9 14h6M11 11h2" stroke-width="1.7"/>
    <path d="M12 3v6M9.5 5.5 12 3l2.5 2.5M16 8.5l2 2-2 2" stroke-width="1.3"/>
  </symbol>
  <symbol id="icon-score-worship" viewBox="0 0 24 24" fill="none" stroke="currentColor" stroke-linecap="square" stroke-linejoin="miter">
    <path d="M12 4v4M8.5 6.5 12 4l3.5 2.5M12 10.2c-2.4 0-4 1.7-4 4v2.3M12 10.2c2.4 0 4 1.7 4 4v2.3M7 19h10" stroke-width="1.5"/>
    <path d="m8 16.5-2 2.3M16 16.5l2 2.3" stroke-width="1.2"/>
  </symbol>
  <symbol id="icon-score-total" viewBox="0 0 24 24" fill="none" stroke="currentColor" stroke-linecap="square" stroke-linejoin="miter">
    <circle cx="12" cy="13" r="7.6" stroke-width="1.6"/>
    <circle cx="12" cy="13" r="4.5" stroke-width="1"/>
    <path d="m8 6 1.5-3 2.5 2 2.5-2L16 6M10.4 13h3.2M12 11.4v3.2" stroke-width="1.3"/>
  </symbol>
  <symbol id="icon-rank-crown" viewBox="0 0 24 24" fill="none" stroke="currentColor" stroke-linecap="square" stroke-linejoin="miter">
    <path d="m4 9 3.5 3 4.5-6 4.5 6L20 9l-1.2 8H5.2L4 9Z" stroke-width="1.7"/>
    <path d="M6 20h12M8 16h8" stroke-width="1.2"/>
  </symbol>
  <symbol id="icon-rank-throne" viewBox="0 0 24 24" fill="none" stroke="currentColor" stroke-linecap="square" stroke-linejoin="miter">
    <path d="M7 19V8l2-3h6l2 3v11M5 21h14M9 11h6M9 15h6" stroke-width="1.7"/>
    <path d="M5 8h2M17 8h2" stroke-width="1.1"/>
  </symbol>
  <symbol id="icon-rank-stair" viewBox="0 0 24 24" fill="none" stroke="currentColor" stroke-linecap="square" stroke-linejoin="miter">
    <path d="M4 19h5v-4h5v-4h6" stroke-width="1.8"/>
    <path d="M5 21h15M16 9l2-2 2 2" stroke-width="1.2"/>
  </symbol>
  <symbol id="icon-rank-seal" viewBox="0 0 24 24" fill="none" stroke="currentColor" stroke-linecap="square" stroke-linejoin="miter">
    <path d="M5 5h14v14H5V5Z" stroke-width="1.6"/>
    <path d="m8 8 4-2 4 2v4l-4 4-4-4V8Z" stroke-width="1.1"/>
    <path d="M9.5 12h5M12 9.5v5" stroke-width="1"/>
  </symbol>
  <symbol id="icon-search" viewBox="0 0 24 24" fill="none" stroke="currentColor" stroke-linecap="square" stroke-linejoin="miter">
    <circle cx="10.2" cy="10.2" r="5.5" stroke-width="1.7"/>
    <path d="m14.2 14.2 5.3 5.3M8.2 10.2h4M10.2 8.2v4" stroke-width="1.2"/>
  </symbol>
  <symbol id="icon-filter" viewBox="0 0 24 24" fill="none" stroke="currentColor" stroke-linecap="square" stroke-linejoin="miter">
    <path d="M4 5h16l-6.2 7v5.5l-3.6 1V12L4 5Z" stroke-width="1.7"/>
    <path d="M8 8h8M10 11h4" stroke-width="1"/>
  </symbol>
</svg>
