<svg xmlns="http://www.w3.org/2000/svg" width="420" height="260" viewBox="0 0 420 260" fill="none">
  <g stroke="#c8b278" stroke-width="1" opacity=".34">
    <path d="M18 54h48m-24-24v48M91 28l18 18-18 18-18-18 18-18Zm35 14c14-18 31-18 45 0s31 18 45 0"/>
    <path d="M242 30c22 15 22 35 0 50m20-50c22 15 22 35 0 50m-35-25h70M304 26l14 14-14 14-14-14 14-14Z"/>
    <path d="M28 154c18-16 36-16 54 0s36 16 54 0m24-24 24 24-24 24-24-24 24-24Zm64 5h56m-28-28v56"/>
    <path d="M284 139h52m-26-26v52m38 5 18-18 18 18-18 18-18-18Zm-4-75 35 35m0-35-35 35"/>
  </g>
  <g fill="#c8b278" opacity=".24" font-family="serif" font-size="12">
    <text x="18" y="94">AETER NEX</text>
    <text x="245" y="102">ORIGO / VIGIL</text>
    <text x="178" y="214">LUX IN NIHIL</text>
  </g>
</svg>
